<svg  xmlns="http://www.w3.org/2000/svg" xmlns:xlink="http://www.w3.org/1999/xlink" width="878" height="300" viewBox="0 0 902 324"><path transform="translate(0 100)" d="M47.5,-17.6Q45.5,-17.6 40.7,-17.45Q35.9,-17.3 28.2,-17.1L28.2,-17.2Q26.8,-17.2 25.25,-17.15Q23.7,-17.1 22.1,-17.1Q22.1,-16.8 22.05,-16.45Q22,-16.1 22,-15.8L22.1,-15.8Q22,-15.3 21.95,-15.1Q21.9,-14.9 21.9,-14.7L20.5,-14.5L20.5,-14.6Q20.2,-14.6 19.85,-14.5Q19.5,-14.4 19.2,-14.4Q18.1,-14.3 17.25,-14.4Q16.4,-14.5 15.6,-14.5L12.1,-14.5L12.1,-14.4Q12,-22.9 12,-29.8L12,-50.6Q12,-54.8 12.1,-57.1Q13.7,-62.1 21.3,-63.3Q32.5,-64 47.3,-64.5L47.3,-82.3L57.6,-82.3Q57.7,-79.7 57.65,-76.95Q57.6,-74.2 57.6,-71.3L57.6,-64.7L59,-64.7Q59.6,-64.7 60.3,-64.65Q61,-64.6 61.9,-64.6L63.9,-64.6Q64.5,-64.6 65.15,-64.55Q65.8,-64.5 66.6,-64.5Q72.8,-64.4 76.95,-64.15Q81.1,-63.9 83.4,-63.5Q87.8,-62.8 90.1,-60.6Q92.4,-58.2 92.8,-53.6Q92.9,-52.5 93,-49.85Q93.1,-47.2 93.15,-43.25Q93.2,-39.3 93.3,-34.3Q93.4,-29.3 93.4,-23.7Q93.3,-22.8 93.3,-21.45Q93.3,-20.1 93.4,-19L93.3,-19Q93.3,-18 93.35,-16.65Q93.4,-15.3 93.4,-14.5L83.2,-14.5L83.2,-17.4L58,-17.6L58,10.5L47.9,10.5L47.9,3.1Q47.9,-3.9 47.8,-9Q47.7,-14.1 47.5,-17.4L47.5,-17.6ZM47.5,-56.5L41.4,-56.3Q34.7,-56 30.25,-55.65Q25.8,-55.3 23.5,-54.9Q22.3,-54.3 22.1,-52.1Q21.9,-50.7 21.85,-49.6Q21.8,-48.5 21.8,-47.5Q21.8,-46.1 21.85,-44.3Q21.9,-42.5 22,-40.3L21.9,-40.3Q21.9,-39.8 21.95,-39.25Q22,-38.7 22,-38.1L21.9,-25.4L47.7,-25.4L47.7,-37.1Q47.6,-40.5 47.55,-43.65Q47.5,-46.8 47.5,-49.8L47.5,-56.5ZM81.5,-54.7Q75.9,-55.8 61.7,-56.3L57.8,-56.5Q57.9,-53.7 57.85,-49.5Q57.8,-45.3 57.8,-39.7L57.8,-25.6Q60.1,-25.5 63.6,-25.45Q67.1,-25.4 71.7,-25.4L83.2,-25.4L83,-38.1Q83,-43.5 82.95,-47.1Q82.9,-50.7 82.8,-52.1Q82.6,-54.2 81.5,-54.7Z"></path><path transform="translate(100 100)" d="M57.2,-6.2Q54.8,-8.1 52.8,-9.65Q50.8,-11.2 49.3,-12.5Q48.7,-13.2 48,-12.9Q47.3,-12.6 45,-10.9Q42.8,-9.2 41.05,-7.75Q39.3,-6.3 37.7,-5.2Q32.3,-2 25.8,1.85Q19.3,5.7 12.4,9.5L8.1,0.6L10.9,-1Q18.8,-5.2 25.75,-9.7Q32.7,-14.2 38.5,-18.7L40.7,-20.4Q38.3,-22.8 36.8,-24.9Q34.4,-28 32.05,-31.55Q29.7,-35.1 27.45,-38.85Q25.2,-42.6 23.1,-46.4Q21,-50.2 19.2,-54L18.4,-56.2Q18.2,-56.2 17.4,-56.25Q16.6,-56.3 15.1,-56.3L13.4,-56.3Q12.4,-56.3 11.2,-56.25Q10,-56.2 8.7,-56.2L6.5,-56.2L6.5,-65.5Q24.8,-65.7 43.2,-66.1L40.9,-73.7Q40.8,-74.3 40.6,-74.95Q40.4,-75.6 40.2,-76.3L49.5,-78.6L53.6,-66.4L53.6,-65.9L89.8,-65.9L89.8,-56.5L76.5,-56.5Q76.5,-56.3 76.4,-56.05Q76.3,-55.8 76.3,-55.6Q72.7,-47.4 67.6,-38.6Q62.5,-29.8 56.4,-21.7L55.2,-20.3L56.1,-19.4Q72.6,-7.2 90.2,1.4Q90.5,1.6 90.3,2L86.7,10.1Q86,9.9 84.1,8.9Q76.8,5.5 70.1,1.75Q63.4,-2 57.2,-6.2ZM65.5,-56.2Q65.3,-56.4 54.1,-56.4L37.8,-56.4Q36.6,-56.4 35.5,-56.35Q34.4,-56.3 33.5,-56.3Q32.1,-56.2 31,-56.2L29.2,-56.2Q30.4,-52.1 33.9,-44.9Q35.6,-42 37.35,-39.4Q39.1,-36.8 40.9,-34.3Q43,-31.5 44.75,-29.7Q46.5,-27.9 47.8,-26.8Q48.1,-27 48.45,-27.4Q48.8,-27.8 49.3,-28.4Q56.6,-37.4 61.9,-47.1L65.5,-56.2Z"></path><path transform="translate(200 100)" d="M63,6.2Q63.4,2.5 64.2,-1.6Q64.2,-1.8 64.3,-2Q64.4,-2.2 64.4,-2.4L65.4,-2.4Q68.7,-1.9 71.4,-1.7Q74.1,-1.5 75.8,-1.5Q76.7,-1.5 77.5,-1.55Q78.3,-1.6 78.8,-1.8Q81.6,-2.7 82.2,-7.1Q82.4,-15.3 82.5,-23.25Q82.6,-31.2 82.6,-39Q82.6,-46.8 82.5,-54.25Q82.4,-61.7 82.2,-69Q81.8,-70.4 80.55,-70.9Q79.3,-71.4 76.5,-71.5Q74.1,-71.6 71.65,-71.65Q69.2,-71.7 66.7,-71.7Q56.1,-71.7 45.4,-71.25Q34.7,-70.8 23.8,-70Q21.1,-69.6 20.4,-69.35Q19.7,-69.1 19.3,-68.6Q18.2,-67.8 18.2,-38.3L18.2,7.1L8.5,7.1L8.5,-31.3Q8.6,-71.4 9.7,-73.1Q11,-75.9 14.1,-77Q15.5,-77.5 18.8,-78Q22.1,-78.5 26.7,-79Q36,-79.4 44.5,-79.6Q53,-79.8 60.8,-79.8Q67.4,-79.8 73.65,-79.65Q79.9,-79.5 85.5,-79.2Q91.3,-78 91.9,-73.1Q92,-64.4 92,-55.8L92,-21.2Q92,-16.6 91.95,-12.15Q91.9,-7.7 91.9,-3.8Q91,1.8 87.4,4.65Q83.8,7.5 76.3,7.5Q72.4,7.5 70.5,7.2Q67.6,6.9 65.75,6.65Q63.9,6.4 63,6.2ZM46.4,-9.6Q47,-10.8 47.75,-12.15Q48.5,-13.5 49.4,-15.1Q47.7,-14.3 45.65,-13.4Q43.6,-12.5 41.9,-11.6Q41.4,-12.9 40.45,-15Q39.5,-17.1 38.4,-19.6L35.5,-25.8Q33.4,-21.5 31.7,-18Q30,-14.5 28.9,-12L26.3,-7.1Q26,-7.2 25.7,-7.35Q25.4,-7.5 25.1,-7.6Q23.4,-8.4 21.75,-9.15Q20.1,-9.9 18.7,-10.6L19.3,-11.8Q22.8,-18.6 25.7,-24.55Q28.6,-30.5 30.6,-35.4Q27.3,-41.8 24.5,-47Q21.7,-52.2 19.7,-55.9Q21.2,-56.7 23.1,-57.65Q25,-58.6 26.7,-59.4L34.5,-46Q35.1,-47.1 36.65,-51.2Q38.2,-55.3 40.6,-62Q42.6,-61.7 44.6,-61.3Q46.6,-60.9 48.6,-60.6Q47,-55.8 44.9,-49.75Q42.8,-43.7 40,-36.4L49.4,-17.3L50,-16.1Q51,-17.7 52.8,-21.25Q54.6,-24.8 57.2,-29.9Q58.9,-33.3 59.5,-34.6Q60.1,-35.9 59.9,-36.2Q58,-39.5 56.1,-43.05Q54.2,-46.6 52.3,-49.9Q51.5,-51.6 50.85,-52.7Q50.2,-53.8 49.7,-54.6L49.2,-55.5Q50.6,-56.5 52.65,-57.45Q54.7,-58.4 56.4,-59.2Q59,-54.9 61,-51.45Q63,-48 64.6,-45.2Q66.9,-50 68.75,-54Q70.6,-58 72.2,-61.2L79.6,-59.6L80,-59.6Q78.1,-54.9 75.85,-49.7Q73.6,-44.5 70.9,-38.5L70.2,-36.6Q69.8,-35.5 69.9,-35.2Q71.8,-31.6 73.8,-27.85Q75.8,-24.1 77.9,-20.2L78.5,-19Q79.5,-17.3 80.1,-16.05Q80.7,-14.8 81,-14.1Q80,-13.4 78,-12.2Q76,-11 73.4,-9.6L73,-10Q71,-14 68.9,-17.95Q66.8,-21.9 64.8,-25.7L62.6,-21.7Q60.5,-17.9 58.35,-14.1Q56.2,-10.3 54.1,-6.3L54.1,-6.4Q53.7,-6.4 53.7,-6.5L46.4,-9.6Z"></path><path transform="translate(300 100)" d="M33.7,9.5Q30.9,9 28.65,8.6Q26.4,8.2 24.5,7.9L23.7,7.3Q23.7,5.5 23.75,3.1Q23.8,0.7 23.9,-1.1Q25.5,-1.1 34.7,0.1Q38.9,0.6 41.45,0.7Q44,0.8 45.1,0.6Q47.6,0.1 48.6,-3L49.1,-4.7Q49.1,-8.7 49,-11.6Q48.9,-14.5 48.7,-16L48.3,-18.5Q35.8,-18.6 27.5,-18.7Q19.2,-18.8 15,-18.9L14.2,-18.9Q13.8,-18.9 13.2,-19.1Q12.9,-19.1 12.8,-19.15Q12.7,-19.2 12.4,-19.2Q11,-19.2 8.85,-19.25Q6.7,-19.3 5.3,-19.3L5.3,-27.8Q7.6,-27.8 9.75,-27.85Q11.9,-27.9 13.9,-27.9L20.5,-27.9Q26.5,-28 30.9,-28L38.2,-28Q41.4,-28 43.35,-28.05Q45.3,-28.1 46.1,-28.2L45.2,-33.4Q45.2,-33.5 45.15,-33.65Q45.1,-33.8 45.1,-34Q45,-34.1 45,-34.3L48.9,-35.9Q56.8,-38.8 60.45,-40.7Q64.1,-42.6 63.9,-43.5Q61.3,-43.7 58.2,-43.85Q55.1,-44 51.7,-44Q45.1,-44 37.1,-43.6Q29.1,-43.2 19.7,-42.7L19.7,-42.8Q19.5,-42.8 19.1,-42.85Q18.7,-42.9 18.4,-42.9L18.4,-43.4Q17.9,-45.3 17.8,-47.3L17.8,-48.4L7.7,-48.4Q7.7,-49.8 7.75,-51.85Q7.8,-53.9 7.8,-55.2Q7.9,-59.2 7.9,-62.3L7.9,-73.6Q10.2,-73.7 12.5,-73.7L17.3,-73.7Q17.4,-73.7 17.4,-73.1L17.4,-72Q21.3,-72.2 25.5,-72.35Q29.7,-72.5 33.9,-72.6L39.7,-72.9Q40.3,-72.9 40.8,-72.95Q41.3,-73 41.8,-73Q42.3,-73 42.7,-73.05Q43.1,-73.1 43.3,-73.1Q44.6,-73.2 44.6,-73.7L43,-78.9Q42.8,-79.1 42.8,-79.4L52.9,-80.6Q53.1,-80.6 53.45,-79.7Q53.8,-78.8 54.7,-76.2L55.7,-73L64.2,-73Q70.6,-73 75.15,-72.8Q79.7,-72.6 82.3,-72.2Q87,-71.4 89.3,-69.1Q90.8,-67.3 91.3,-65.4Q91.4,-64.6 91.45,-62.25Q91.5,-59.9 91.5,-56.1L91.5,-52.3Q91.5,-51.3 91.55,-50.4Q91.6,-49.5 91.6,-48.8Q90.3,-48.8 89.2,-48.7Q88.1,-48.6 86.8,-48.6L81.9,-48.6Q81.8,-49.6 81.75,-51.05Q81.7,-52.5 81.7,-54.5Q81.7,-56.5 81.65,-57.95Q81.6,-59.4 81.5,-60.2Q80.7,-62.7 77.1,-63.4Q73,-63.5 68.85,-63.6Q64.7,-63.7 60.3,-63.7Q51.7,-63.7 42.6,-63.5Q33.5,-63.3 23.5,-63.1L23.5,-63.2Q22.6,-63.2 21.7,-63.15Q20.8,-63.1 19.9,-63.1L17.4,-63.2L17.4,-51.5L19.3,-51.5Q33.8,-52.7 52.7,-53L54.7,-53Q57.2,-53.1 59.35,-53.15Q61.5,-53.2 63.5,-53.2Q67.3,-53.2 70,-53.05Q72.7,-52.9 74.3,-52.7Q79.2,-52.1 80.9,-49.1Q82.7,-45.8 77.05,-41.1Q71.4,-36.4 59.8,-31Q57.7,-30.2 57.25,-29.75Q56.8,-29.3 57,-28.8L57,-28.9L57.1,-28.2L61,-28.2Q63.4,-28.2 66.1,-28.15Q68.8,-28.1 71.4,-28.1L75.9,-28.1Q81,-28 85.7,-28L94.4,-28L94.4,-19.1L71.2,-18.7Q66.6,-18.8 63.5,-18.7Q60.4,-18.6 59,-18.5Q59,-18.1 59.05,-17.85Q59.1,-17.6 59.1,-17.3L59.1,-17.2L59.2,-17.3Q59.4,-15.7 59.4,-13.6L59.4,-9.3Q59.4,-1.1 57.5,3.75Q55.6,8.6 51.9,9.8Q49.9,10.1 47.45,10.2Q45,10.3 42.1,10.2L33.7,9.5Z"></path><path transform="translate(400 100)" d="M61.2,-41.7L36.4,-41.7L36.4,-52L61,-52L61,-80.5L70.9,-80.5Q70.9,-77.9 70.95,-74.45Q71,-71 71.1,-66.7L71,-66.7Q71,-65.4 71.05,-64Q71.1,-62.6 71.1,-61.2L71.1,-52L95.9,-52L95.9,-41.8L96,-41.8Q94.2,-41.7 91,-41.7L71.2,-41.7Q71.3,-19.4 71.25,-6.7Q71.2,6 71.2,9.3Q71.2,9.6 71.3,9.85Q71.4,10.1 71.4,10.4L61.4,10.4L61.4,6.2Q61.3,2 61.25,-4.4Q61.2,-10.8 61.2,-19.8L61.2,-41.7ZM16.3,2.7L17.4,1.3Q19,-0.7 19.6,-3Q19.6,-8.2 19.65,-13.35Q19.7,-18.5 19.7,-23.6Q19.7,-28.7 19.65,-33.7Q19.6,-38.7 19.6,-43.8Q19.1,-44 15.7,-43.1Q14,-42.6 12.35,-42.15Q10.7,-41.7 9.2,-41.2Q7,-40.4 6.3,-40.4L6.3,-40.3Q5.6,-42.5 5.05,-44.65Q4.5,-46.8 4,-49.1L4,-49.6Q7.2,-50.7 10.6,-51.6Q14,-52.5 17.2,-53.2Q19.4,-53.7 21.1,-53.95Q22.8,-54.2 24.2,-54.2Q26.5,-54.2 27.75,-53.3Q29,-52.4 29.6,-50.8Q29.7,-50.5 29.85,-50.2Q30,-49.9 30.1,-49.6L30,-49.6Q30,-30.7 30.1,-20.15Q30.2,-9.6 30.3,-7.1L40.5,-14.7Q41.9,-13 43.2,-11.2Q44.5,-9.4 45.8,-7.5Q41.7,-4.3 36.1,-0.2Q30.5,3.9 23.9,8.3Q23.9,8.4 23.25,8.75Q22.6,9.1 22.2,9.3L21.5,9.7L21,8.9Q20,7.8 19,6.55Q18,5.3 16.9,3.7L16.3,2.7ZM13.1,-77Q14,-77.4 15.65,-77.9Q17.3,-78.4 19.6,-78.9Q20.9,-79.4 21.95,-79.6Q23,-79.8 23.5,-79.9Q24.9,-75.5 26.3,-71Q27.7,-66.5 29,-62Q28.9,-61.6 28.2,-61.4L19.4,-59Q18.7,-59.8 16.1,-68Q13.7,-74.7 13.1,-77Z"></path><path transform="translate(500 100)" d="M29.7,-8.9L27.9,-7.3Q24.4,-4.3 20.35,-1.05Q16.3,2.2 11.9,5.4L9.5,7Q9.2,7.2 9.2,7.1Q7,3.8 5.8,1.8L4.3,-0.7L7.8,-3.2Q12.1,-6.3 16.15,-9.4Q20.2,-12.5 24,-15.7L26,-17.5L25.2,-19.6Q24.4,-22.2 23.7,-25.2Q23,-28.2 22.3,-31.35Q21.6,-34.5 21,-37.6Q20.4,-40.7 19.9,-43.4Q19.8,-44.1 19.7,-44.65Q19.6,-45.2 19.5,-45.5L5.9,-44.2L5.9,-44.3L5.5,-44.3L5.3,-47.9Q5.1,-49.8 5,-50.9Q4.9,-52 4.9,-52.5Q4.9,-53 4.9,-53.1L5.1,-53.2Q5.9,-53.4 7.45,-53.6Q9,-53.8 11.3,-54L17.7,-54.9Q18.6,-55 18.6,-55.4L18,-60.5L17.8,-62.8L16.8,-77.6Q16.8,-78 16.85,-78.25Q16.9,-78.5 17.4,-78.6Q17.9,-78.7 18.9,-78.8Q19.9,-78.9 21.9,-79L26,-79Q26.1,-77.3 26.25,-75.15Q26.4,-73 26.6,-70.8L27.8,-56.3Q33.6,-56.9 40.15,-57.6Q46.7,-58.3 53.3,-59.1L54.1,-59.1Q54.3,-56.8 54.45,-54.8Q54.6,-52.8 54.6,-51.4Q54.6,-51 54.7,-50.55Q54.8,-50.1 54.8,-49.7L28.7,-47Q29.6,-41.3 30.8,-35.8Q32,-30.3 33.4,-24.9Q35.7,-27.4 38.8,-31.25Q41.9,-35.1 46.1,-40.5L48.1,-43.2L49.1,-42.6L52.8,-40.3Q53.4,-40 54.1,-39.5L55.5,-38.6L54.5,-37.2Q50.9,-32.3 46.9,-27.3Q42.9,-22.3 38.7,-17.7L36.7,-15.5L38.5,-12Q41,-7.5 43.95,-3.25Q46.9,1 50.4,5Q52.5,7.2 52.6,7.7L49.6,11.1Q48.1,12.8 46.7,14.5L44.5,12.2Q40.7,7.7 37,2.55Q33.3,-2.6 30.5,-7.3L29.7,-8.9ZM62.3,11.4Q62.5,9 62.75,6.8Q63,4.6 63.3,2.7Q63.6,2.7 64.3,2.75Q65,2.8 65.8,3Q71.7,4.4 75.8,4.4Q77.9,4.4 79.35,4Q80.8,3.6 81.3,2.8Q82.2,-1.5 82.2,-44.8L82.2,-78.8L91.1,-78.8Q91.1,-70.3 91.15,-62.3Q91.2,-54.3 91.2,-46.6L91.2,-21.5Q91.2,-15.4 91.15,-9.6Q91.1,-3.8 91,1.3Q90.8,4.2 90.3,6.45Q89.8,8.7 89,9.8Q87.5,12.1 83.2,13.2Q82.3,13.3 80.65,13.35Q79,13.4 77.1,13.4Q76.2,13.4 75.25,13.35Q74.3,13.3 73.3,13.3L73.3,13.4Q71,13.1 68.85,12.7Q66.7,12.3 64.5,11.8L62.3,11.4ZM62.7,-69.2L65.2,-69.2Q66.6,-69.2 67.8,-69.15Q69,-69.1 69.9,-69.05Q70.8,-69 71.1,-69L71.8,-69L71.8,-5.8L62.9,-5.8L62.9,-28.1Q62.8,-35.9 62.75,-42.95Q62.7,-50 62.7,-56.3L62.7,-69.2ZM32.2,-72.7Q32.7,-73.5 33.35,-74.35Q34,-75.2 34.5,-76L36,-78.2L36.7,-79.2Q39.9,-76.7 42.6,-74.4L49.8,-68.6L50.6,-67.9L48.9,-66L45.9,-62.4Q45.4,-61.9 45.2,-61.9Q45,-61.9 44.4,-62.6L44,-63Q42.2,-64.7 39.95,-66.55Q37.7,-68.4 35,-70.6L32.2,-72.7Z"></path><path transform="translate(0 200)" d="M54.3,-67.7L54.3,-57.9L32.7,-58L32.7,-51.2Q32.7,-47.2 32.65,-42.95Q32.6,-38.7 32.6,-34.7L32.6,-27.8Q32.5,-20.4 32.5,-13.1L32.5,1.5L27.1,1.5Q25.8,1.5 24.45,1.45Q23.1,1.4 21.8,1.4L21.8,-58Q19.1,-58 16.15,-57.95Q13.2,-57.9 10.5,-57.9L0.1,-57.9L0.1,-60.3Q0.1,-61.4 0.2,-62.7Q0.2,-63.9 0.25,-65.1Q0.3,-66.3 0.3,-67.4L54.3,-67.7Z"></path><path transform="translate(55 200)" d="M15.3,-71.4L15.5,-43L15.3,-38.9Q19.2,-43.6 23.15,-45.8Q27.1,-48 31.1,-48.1Q34.5,-48.2 37.2,-46.75Q39.9,-45.3 41.75,-42.8Q43.6,-40.3 44.75,-36.9Q45.9,-33.5 46.4,-29.7L46.4,-26.1Q46.4,-24.1 46.35,-21.95Q46.3,-19.8 46.3,-17.7L46.3,-14.2Q46.2,-10.4 46.2,-6.5L46.2,1.1Q44.8,1.1 43.65,1.15Q42.5,1.2 41.1,1.2L36,1.2L35.9,-26.3Q35.9,-33.1 33.75,-36.05Q31.6,-39 26.5,-39.1Q21.2,-38.9 16.1,-34L16.1,1.2L5.7,1.2L5.7,-71.8L15.3,-71.4Z"></path><path transform="translate(107 200)" d="M25.3,2.2Q14.9,1.7 9.15,-4.75Q3.4,-11.2 3.1,-23.6Q3.1,-29.6 4.75,-34.35Q6.4,-39.1 9.25,-42.4Q12.1,-45.7 16.05,-47.5Q20,-49.3 24.7,-49.3Q29.7,-49.4 33.55,-47.7Q37.4,-46 40,-42.75Q42.6,-39.5 43.9,-34.9Q45.2,-30.3 45.2,-24.6L45.2,-23Q45.2,-22.2 45,-21.4L13,-20.9Q13.4,-14.1 16.55,-10.5Q19.7,-6.9 26.5,-6.9Q30.7,-6.9 34.15,-7.75Q37.6,-8.6 41.5,-10.6Q41.8,-9.3 42.1,-8.4L42.8,-6.3L43.9,-2.6Q40.2,-0.4 35.95,0.9Q31.7,2.2 25.3,2.2ZM35.1,-27.4Q35.1,-33.7 32,-37.2Q28.9,-40.7 24.6,-40.7Q22.2,-40.6 20.2,-39.55Q18.2,-38.5 16.7,-36.7Q15.2,-34.9 14.3,-32.45Q13.4,-30 13.3,-27.2L35.1,-27.4Z"></path><path transform="translate(155 200)" d=""></path><path transform="translate(189 200)" d="M8.1,0.9L8.1,-33.4Q8.1,-42 8.15,-50.5Q8.2,-59 8.2,-67.7L25.5,-67.6L26.4,-67.6Q26.6,-67.6 26.85,-67.65Q27.1,-67.7 27.3,-67.7Q38.9,-67.6 44.9,-62.15Q50.9,-56.7 50.9,-47.2Q50.9,-40.9 49.15,-36.55Q47.4,-32.2 44.15,-29.5Q40.9,-26.8 36.2,-25.6Q31.5,-24.4 25.6,-24.3L18.3,-24.3L18.3,0.8L8.1,0.9ZM18.3,-33.8Q19.4,-33.8 20.05,-33.75Q20.7,-33.7 21.3,-33.6Q22.1,-33.5 23,-33.45Q23.9,-33.4 25,-33.4Q32.6,-33.4 36.6,-36.45Q40.6,-39.5 40.4,-46.3Q40.4,-52.9 36.8,-55.75Q33.2,-58.6 25.3,-58.5L18.3,-58.5L18.3,-33.8Z"></path><path transform="translate(242 200)" d="M7.6,0.6Q7.6,-1 7.55,-2.6Q7.5,-4.2 7.5,-5.7L7.5,-47.9L17.6,-47.9L17.5,-38.1Q21.2,-43.8 25.1,-46.45Q29,-49.1 34.4,-49.1Q34.5,-49.1 34.6,-49.05Q34.7,-49 34.8,-49L35.2,-49Q35.4,-48.9 36.7,-48.9L35.9,-43.4Q35.7,-42.1 35.55,-40.8Q35.4,-39.5 35.2,-38.2Q34.1,-38.4 32.85,-38.6Q31.6,-38.8 30.5,-38.6Q27.4,-38.6 24.25,-36.6Q21.1,-34.6 18.3,-31L18.3,-22.3Q18.3,-19.8 18.35,-17.8Q18.4,-15.8 18.4,-15.1Q18.4,-14 18.45,-13.05Q18.5,-12.1 18.5,-11.1L18.5,0.7L7.6,0.6Z"></path><path transform="translate(279 200)" d="M25.5,2.2Q20.6,2.2 16.6,0.55Q12.6,-1.1 9.75,-4.35Q6.9,-7.6 5.3,-12.45Q3.7,-17.3 3.6,-23.7Q3.6,-29.7 5.2,-34.4Q6.8,-39.1 9.75,-42.4Q12.7,-45.7 16.75,-47.45Q20.8,-49.2 25.7,-49.4Q30.6,-49.2 34.65,-47.4Q38.7,-45.6 41.6,-42.35Q44.5,-39.1 46.15,-34.4Q47.8,-29.7 47.8,-23.9Q47.6,-10.8 41.65,-4.35Q35.7,2.1 25.5,2.2ZM25.7,-39.7Q20,-39.7 17.15,-35.35Q14.3,-31 14.3,-23.6Q14.5,-7.4 25.7,-7.4Q37,-7.4 37.3,-23.8Q37.3,-31.1 34.15,-35.4Q31,-39.7 25.7,-39.7Z"></path><path transform="translate(330 200)" d="M1.6,15.9Q4.8,13.9 7.15,11.05Q9.5,8.2 10.2,5.4Q10.9,2.6 11,-0.5Q11.1,-3.6 11.1,-7.4L11.1,-47.3Q12.2,-47.3 13.75,-47.25Q15.3,-47.2 16.2,-47.2Q17.6,-47.1 18.8,-47.1L21.4,-47.1Q21.4,-43.1 21.45,-38.55Q21.5,-34 21.5,-28.1L21.5,-7.3Q21.4,-6.6 21.4,-5.7L21.4,-4.3Q21.2,-1.1 20.95,1.9Q20.7,4.9 19.9,7.9Q19.4,9.5 17.95,11.75Q16.5,14 14.4,16.6Q12.2,19.2 10.2,21Q8.2,22.8 6.2,23.8L1.6,15.9ZM11.1,-69L21.5,-69Q21.5,-67.7 21.45,-65.8Q21.4,-63.9 21.4,-62.8Q21.3,-61.3 21.3,-59.8L21.3,-56.8L11.1,-56.8L11.1,-69Z"></path><path transform="translate(356 200)" d="M25.3,2.2Q14.9,1.7 9.15,-4.75Q3.4,-11.2 3.1,-23.6Q3.1,-29.6 4.75,-34.35Q6.4,-39.1 9.25,-42.4Q12.1,-45.7 16.05,-47.5Q20,-49.3 24.7,-49.3Q29.7,-49.4 33.55,-47.7Q37.4,-46 40,-42.75Q42.6,-39.5 43.9,-34.9Q45.2,-30.3 45.2,-24.6L45.2,-23Q45.2,-22.2 45,-21.4L13,-20.9Q13.4,-14.1 16.55,-10.5Q19.7,-6.9 26.5,-6.9Q30.7,-6.9 34.15,-7.75Q37.6,-8.6 41.5,-10.6Q41.8,-9.3 42.1,-8.4L42.8,-6.3L43.9,-2.6Q40.2,-0.4 35.95,0.9Q31.7,2.2 25.3,2.2ZM35.1,-27.4Q35.1,-33.7 32,-37.2Q28.9,-40.7 24.6,-40.7Q22.2,-40.6 20.2,-39.55Q18.2,-38.5 16.7,-36.7Q15.2,-34.9 14.3,-32.45Q13.4,-30 13.3,-27.2L35.1,-27.4Z"></path><path transform="translate(404 200)" d="M25.7,2.3Q15.7,2 9.7,-4.6Q3.7,-11.2 3.7,-23.3Q3.7,-28.8 5.45,-33.3Q7.2,-37.8 10.25,-41.15Q13.3,-44.5 17.35,-46.6Q21.4,-48.7 26,-49.3Q30,-49.1 33.55,-48.5Q37.1,-47.9 40.3,-46.3L37.6,-37.7Q34.8,-39.1 32.15,-39.45Q29.5,-39.8 26.6,-39.7Q23.3,-39.7 20.95,-38.4Q18.6,-37.1 17.05,-34.85Q15.5,-32.6 14.8,-29.6Q14.1,-26.6 14.1,-23.2Q14.1,-19.9 14.7,-17.05Q15.3,-14.2 16.75,-12Q18.2,-9.8 20.6,-8.55Q23,-7.3 26.6,-7.3Q29.8,-7.2 32.25,-7.95Q34.7,-8.7 37.7,-9.9L40.3,-1.2Q36.6,0.5 33.15,1.35Q29.7,2.2 25.7,2.3Z"></path><path transform="translate(447 200)" d="M1.4,-38.8L1.4,-47.3L10.5,-47.2L10.5,-54.7Q10.5,-56.5 10.55,-58.1Q10.6,-59.7 10.6,-61.4Q11.9,-61.4 13,-61.35Q14.1,-61.3 15.5,-61.3L20.4,-61.3L20.4,-47.4L31.9,-47.4Q31.9,-46.1 31.95,-45.15Q32,-44.2 32,-43.1L32,-38.9L20.5,-39L20.4,-13.8Q20.4,-10.9 21.6,-9.05Q22.8,-7.2 25.3,-7.1Q26.4,-6.9 28.1,-7.3Q29.8,-7.7 31,-8.2L31.9,-3.6L33,0.9Q30.5,1.7 27.9,2.2Q25.3,2.7 22.7,2.7Q16.1,2.7 13.35,-0.55Q10.6,-3.8 10.6,-10.4L10.6,-38.7L1.4,-38.8Z"></path><path transform="translate(485 200)" d=""></path><path transform="translate(519 200)" d="M8.2,-67.8Q12.9,-67.8 17.25,-67.75Q21.6,-67.7 26.3,-67.7L44.5,-67.7L44.5,-58L18.2,-58L18.1,-36.8L24.2,-36.8Q27.7,-36.8 30.5,-36.9Q33.4,-36.9 36.3,-36.95Q39.2,-37 42.1,-37L42.1,-32.1Q42.1,-31 42.15,-29.8Q42.2,-28.6 42.2,-27.4L18.3,-27.2Q18.3,-23.6 18.25,-19.8Q18.2,-16 18.2,-12.4L18.2,1.5L8.3,1.5L8.2,-67.8Z"></path><path transform="translate(564 200)" d="M25.5,2.2Q20.6,2.2 16.6,0.55Q12.6,-1.1 9.75,-4.35Q6.9,-7.6 5.3,-12.45Q3.7,-17.3 3.6,-23.7Q3.6,-29.7 5.2,-34.4Q6.8,-39.1 9.75,-42.4Q12.7,-45.7 16.75,-47.45Q20.8,-49.2 25.7,-49.4Q30.6,-49.2 34.65,-47.4Q38.7,-45.6 41.6,-42.35Q44.5,-39.1 46.15,-34.4Q47.8,-29.7 47.8,-23.9Q47.6,-10.8 41.65,-4.35Q35.7,2.1 25.5,2.2ZM25.7,-39.7Q20,-39.7 17.15,-35.35Q14.3,-31 14.3,-23.6Q14.5,-7.4 25.7,-7.4Q37,-7.4 37.3,-23.8Q37.3,-31.1 34.15,-35.4Q31,-39.7 25.7,-39.7Z"></path><path transform="translate(615 200)" d="M7.6,0.6Q7.6,-1 7.55,-2.6Q7.5,-4.2 7.5,-5.7L7.5,-47.9L17.6,-47.9L17.5,-38.1Q21.2,-43.8 25.1,-46.45Q29,-49.1 34.4,-49.1Q34.5,-49.1 34.6,-49.05Q34.7,-49 34.8,-49L35.2,-49Q35.4,-48.9 36.7,-48.9L35.9,-43.4Q35.7,-42.1 35.55,-40.8Q35.4,-39.5 35.2,-38.2Q34.1,-38.4 32.85,-38.6Q31.6,-38.8 30.5,-38.6Q27.4,-38.6 24.25,-36.6Q21.1,-34.6 18.3,-31L18.3,-22.3Q18.3,-19.8 18.35,-17.8Q18.4,-15.8 18.4,-15.1Q18.4,-14 18.45,-13.05Q18.5,-12.1 18.5,-11.1L18.5,0.7L7.6,0.6Z"></path><path transform="translate(652 200)" d=""></path><path transform="translate(686 200)" d="M12.5,-68.6L24.5,-15.9L24.5,-16L25.1,-10.3L27.2,-10.3L28,-15.9L39.9,-64.7Q39.9,-65.2 39.95,-65.85Q40,-66.5 40.1,-67L45.9,-67Q47.3,-67 48.8,-67.05Q50.3,-67.1 51.7,-67.1L52.2,-64.8Q55.2,-52.8 58.2,-40.55Q61.2,-28.3 64.2,-16.3L65,-10.1L67.2,-10.1L68.1,-16.2L80.5,-68.4Q83.1,-67.6 85.55,-67.1Q88,-66.6 90.6,-65.8L73.6,-0.3L73.2,1.8L60,1.8L60,0.3L47.8,-46.2L47.3,-51.7L45.2,-51.6L44.3,-46.1L33.1,-0.6Q33,-0.1 32.85,0.55Q32.7,1.2 32.6,1.9L26,1.9Q24.3,1.9 22.7,1.85Q21.1,1.8 19.4,1.8Q19.2,1 18.95,0.25Q18.7,-0.5 18.5,-1.3L2.4,-65.9L12.5,-68.6Z"></path><path transform="translate(779 200)" d="M25.3,2.2Q14.9,1.7 9.15,-4.75Q3.4,-11.2 3.1,-23.6Q3.1,-29.6 4.75,-34.35Q6.4,-39.1 9.25,-42.4Q12.1,-45.7 16.05,-47.5Q20,-49.3 24.7,-49.3Q29.7,-49.4 33.55,-47.7Q37.4,-46 40,-42.75Q42.6,-39.5 43.9,-34.9Q45.2,-30.3 45.2,-24.6L45.2,-23Q45.2,-22.2 45,-21.4L13,-20.9Q13.4,-14.1 16.55,-10.5Q19.7,-6.9 26.5,-6.9Q30.7,-6.9 34.15,-7.75Q37.6,-8.6 41.5,-10.6Q41.8,-9.3 42.1,-8.4L42.8,-6.3L43.9,-2.6Q40.2,-0.4 35.95,0.9Q31.7,2.2 25.3,2.2ZM35.1,-27.4Q35.1,-33.7 32,-37.2Q28.9,-40.7 24.6,-40.7Q22.2,-40.6 20.2,-39.55Q18.2,-38.5 16.7,-36.7Q15.2,-34.9 14.3,-32.45Q13.4,-30 13.3,-27.2L35.1,-27.4Z"></path><path transform="translate(827 200)" d="M16.4,-70.6L16.4,-58.8Q16.4,-55.8 16.45,-52.8Q16.5,-49.8 16.5,-46.7L15.9,-40.6Q19.5,-43.7 23.5,-45.9Q27.5,-48.1 31.3,-48.1Q36.2,-48 39.4,-45.75Q42.6,-43.5 44.4,-40Q46.2,-36.5 46.95,-32.2Q47.7,-27.9 47.8,-23.7Q47.7,-17.5 46.15,-12.55Q44.6,-7.6 41.85,-4.15Q39.1,-0.7 35.15,1.1Q31.2,2.9 26.2,2.8Q20.8,2.8 16,1.6Q11.2,0.4 6.1,-2.2L6.1,-70.6L16.4,-70.6ZM27,-39.2Q23.8,-39 21.35,-37.6Q18.9,-36.2 16.4,-34.1L16.5,-8.3Q18.6,-7.3 20.65,-6.8Q22.7,-6.3 25.1,-6.2Q28.7,-6.3 30.95,-7.8Q33.2,-9.3 34.55,-11.65Q35.9,-14 36.45,-17Q37,-20 37.2,-23.3Q37,-26.6 36.5,-29.5Q36,-32.4 34.85,-34.55Q33.7,-36.7 31.85,-37.95Q30,-39.2 27,-39.2Z"></path></svg>